<?xml version="1.0" encoding="UTF-8"?><svg id="Layer_1" xmlns="http://www.w3.org/2000/svg" viewBox="0 0 1592.47 194.34"><defs><style>.cls-1{fill:#ee3124;}.cls-2{fill:#231f20;}</style></defs><polygon class="cls-2" points="204.27 136.05 183.88 136.05 183.88 59.19 162.79 59.19 162.79 43.48 225.36 43.48 225.36 59.19 204.27 59.19 204.27 136.05"/><polygon class="cls-2" points="299.31 79.94 299.31 43.48 319.7 43.48 319.7 136.05 299.31 136.05 299.31 94.68 261.57 94.68 261.57 136.05 241.18 136.05 241.18 43.48 261.57 43.48 261.57 79.94 299.31 79.94"/><polygon class="cls-2" points="363.4 59.2 363.4 79.58 395.87 79.58 395.87 95.29 363.4 95.29 363.4 120.34 397.12 120.34 397.12 136.06 343.01 136.06 343.01 43.48 397.12 43.48 397.12 59.2 363.4 59.2"/><path class="cls-2" d="M527.11,136.06h-24.69l-25.39-37.33h-.28v37.33h-20.39V43.48h27.61c20.67,0,34.96,8.1,34.96,27.87,0,11.79-7.35,23.57-21.36,25.66l29.55,39.05Zm-50.36-49.97h2.64c11.24,0,19.15-2.94,19.15-14.24s-8.19-13.63-19.01-13.63h-2.77v27.87Z"/><polygon class="cls-2" points="562.49 59.2 562.49 79.58 594.95 79.58 594.95 95.29 562.49 95.29 562.49 120.34 596.2 120.34 596.2 136.06 542.09 136.06 542.09 43.48 596.2 43.48 596.2 59.2 562.49 59.2"/><path class="cls-2" d="M710.52,86.82v2.33c0,26.15-15.12,49.36-47.58,49.36-30.53,0-49.81-22.84-49.81-48.38s19.84-49.11,51.05-49.11c17.76,0,33.29,7.98,41.34,22.1l-18.03,8.59c-4.16-8.35-13.05-14.73-23.87-14.73-19.7,0-29.41,17.8-29.41,33.15s9.85,32.41,29.55,32.41c12.76,0,23.45-9.82,23.87-20.99h-22.2v-14.73h45.09Z"/><rect class="cls-2" x="728.98" y="43.48" width="20.39" height="92.57"/><path class="cls-2" d="M821.79,63.86c-3.89-4.66-8.88-7.61-15.68-7.61s-12.76,4.42-12.76,10.44c0,15.59,41.48,9.08,41.48,40.15,0,18.54-13.04,31.68-34.41,31.68-14.43,0-24.98-7.36-32.19-18.05l13.18-11.42c2.77,7.12,10.13,13.51,18.87,13.51s13.46-6.26,13.46-13.39c0-9.58-9.98-12.28-18.17-15.1-13.46-4.91-23.31-10.93-23.31-25.29,0-15.35,12.9-27.75,30.52-27.75,9.3,0,22.2,4.06,28.58,10.31l-9.57,12.53Z"/><path class="cls-2" d="M958.3,68.04c-5.69-6.14-14.29-9.82-23.03-9.82-19.56,0-30.8,15.96-30.8,31.92s11.65,31.18,30.66,31.18c8.74,0,17.48-4.05,23.17-9.82v21.48c-7.63,3.19-15.26,5.53-23.72,5.53-29.41,0-51.19-22.46-51.19-48s20.94-49.48,51.61-49.48c8.18,0,16.22,1.96,23.3,5.4v21.61Z"/><path class="cls-2" d="M972.31,89.65c0-25.91,21.23-48.62,51.75-48.62s51.75,22.71,51.75,48.62-21.23,48.87-51.75,48.87-51.75-22.34-51.75-48.87m21.09-.74c0,13.99,13.32,31.8,30.66,31.8s30.66-17.81,30.66-31.8c0-14.98-12.76-30.08-30.66-30.08s-30.66,15.1-30.66,30.08"/><polygon class="cls-2" points="1169.46 78.59 1169.18 78.59 1145.46 137.29 1138.38 137.29 1115.49 78.59 1115.22 78.59 1105.92 136.05 1085.39 136.05 1103 41.02 1117.44 41.02 1143.24 102.05 1167.93 41.02 1182.64 41.02 1198.32 136.05 1177.78 136.05 1169.46 78.59"/><path class="cls-2" d="M1236.06,136.06h-20.39V43.48h27.75c21.92,0,36.21,7.73,36.21,28.73,0,19.64-12.07,29.23-33.44,29.23h-10.13v34.62Zm0-49.6h4.16c12.07,0,18.59-2.33,18.59-14.36s-7.77-13.63-19.15-13.63h-3.61v28Z"/><path class="cls-2" d="M1307.53,116.53l-8.6,19.53h-21.51l40.79-95.03h15.82l39.68,95.03h-21.78l-8.05-19.53h-36.35Zm17.62-48.37h-.28l-11.52,33.64h24.83l-13.04-33.64Z"/><polygon class="cls-2" points="1388.28 41.02 1402.98 41.02 1458.06 105.73 1458.33 105.73 1458.33 43.48 1478.73 43.48 1478.73 137.9 1464.02 137.9 1408.95 73.19 1408.67 73.19 1408.67 136.05 1388.28 136.05 1388.28 41.02"/><polygon class="cls-2" points="1492.19 43.48 1515.91 43.48 1534.22 75.65 1554.2 43.48 1578.06 43.48 1545.04 93.58 1545.04 136.05 1524.65 136.05 1524.65 93.58 1492.19 43.48"/><g><polygon class="cls-1" points="9.75 130.35 110.31 116.55 110.39 97.63 9.68 109.56 9.75 130.35"/><polygon class="cls-1" points="10.13 89.67 90.03 83.72 90.08 64.91 10.02 69.2 10.13 89.67"/><polygon class="cls-1" points="9.89 171.54 130.58 145.91 130.63 126.94 9.87 150.73 9.89 171.54"/><rect class="cls-1" x="10.29" y="29.2" width="59.96" height="20.52"/></g></svg>